<svg width="30" height="30" viewBox="0 0 30 30" fill="none" xmlns="http://www.w3.org/2000/svg">
<path fill-rule="evenodd" clip-rule="evenodd" d="M4.5 6.375C4.5 5.47989 4.85558 4.62145 5.48851 3.98851C6.12145 3.35558 6.97989 3 7.875 3H16.125C17.0201 3 17.8785 3.35558 18.5115 3.98851C19.1444 4.62145 19.5 5.47989 19.5 6.375V9.375C19.5 9.67337 19.3815 9.95952 19.1705 10.1705C18.9595 10.3815 18.6734 10.5 18.375 10.5C18.0766 10.5 17.7905 10.3815 17.5795 10.1705C17.3685 9.95952 17.25 9.67337 17.25 9.375V6.375C17.25 6.07663 17.1315 5.79048 16.9205 5.5795C16.7095 5.36853 16.4234 5.25 16.125 5.25H7.875C7.57663 5.25 7.29048 5.36853 7.0795 5.5795C6.86853 5.79048 6.75 6.07663 6.75 6.375V23.625C6.75 24.246 7.254 24.75 7.875 24.75H16.125C16.4234 24.75 16.7095 24.6315 16.9205 24.4205C17.1315 24.2095 17.25 23.9234 17.25 23.625V20.625C17.25 20.3266 17.3685 20.0405 17.5795 19.8295C17.7905 19.6185 18.0766 19.5 18.375 19.5C18.6734 19.5 18.9595 19.6185 19.1705 19.8295C19.3815 20.0405 19.5 20.3266 19.5 20.625V23.625C19.5 24.5201 19.1444 25.3785 18.5115 26.0115C17.8785 26.6444 17.0201 27 16.125 27H7.875C6.97989 27 6.12145 26.6444 5.48851 26.0115C4.85558 25.3785 4.5 24.5201 4.5 23.625V6.375Z" fill="white"/>
<path fill-rule="evenodd" clip-rule="evenodd" d="M9 15.0002C9 14.7018 9.11853 14.4156 9.3295 14.2047C9.54048 13.9937 9.82663 13.8752 10.125 13.8752H24.444L22.872 12.4607C22.7587 12.3628 22.6661 12.2433 22.5996 12.1091C22.5331 11.975 22.494 11.8289 22.4847 11.6795C22.4753 11.5301 22.4959 11.3803 22.5452 11.2389C22.5945 11.0975 22.6716 10.9674 22.7718 10.8562C22.872 10.745 22.9935 10.6549 23.129 10.5912C23.2645 10.5275 23.4113 10.4915 23.5609 10.4853C23.7105 10.4791 23.8598 10.5029 24.0001 10.5551C24.1404 10.6074 24.2689 10.6871 24.378 10.7897L28.128 14.1647C28.245 14.2701 28.3385 14.399 28.4025 14.5429C28.4666 14.6869 28.4996 14.8426 28.4996 15.0002C28.4996 15.1577 28.4666 15.3134 28.4025 15.4574C28.3385 15.6013 28.245 15.7302 28.128 15.8357L24.378 19.2107C24.2689 19.3132 24.1404 19.3929 24.0001 19.4452C23.8598 19.4974 23.7105 19.5212 23.5609 19.515C23.4113 19.5088 23.2645 19.4728 23.129 19.4091C22.9935 19.3454 22.872 19.2553 22.7718 19.1441C22.6716 19.0329 22.5945 18.9028 22.5452 18.7614C22.4959 18.62 22.4753 18.4703 22.4847 18.3208C22.494 18.1714 22.5331 18.0253 22.5996 17.8912C22.6661 17.7571 22.7587 17.6375 22.872 17.5397L24.444 16.1252H10.125C9.97726 16.1252 9.83097 16.0961 9.69448 16.0395C9.55799 15.983 9.43397 15.9001 9.3295 15.7957C9.22504 15.6912 9.14217 15.5672 9.08564 15.4307C9.0291 15.2942 9 15.1479 9 15.0002Z" fill="white"/>
</svg>
