<svg width="55" height="100" viewBox="0 0 55 100" fill="none" xmlns="http://www.w3.org/2000/svg">
<g clip-path="url(#clip0_55_43)">
<path d="M50.0236 18.4409C49.658 17.0872 48.749 15.8471 47.4743 15.0022C46.2342 14.1722 44.7768 13.7967 43.4477 13.935C42.094 10.3728 38.517 7.79379 34.6929 7.61103C34.6929 6.15361 33.8629 4.68619 32.5586 3.96981C31.0468 3.13979 29.0656 3.23366 27.3808 4.16249C27.1189 3.22872 26.7484 2.31968 26.2543 1.45014C25.7059 0.491664 24.6881 -0.0419406 23.5469 0.00258019C22.4105 0.066809 21.4224 0.748608 20.958 1.81579L20.7949 2.22586C18.8384 7.55672 17.3168 13.0359 16.2644 18.5202C15.6123 21.8798 15.0194 25.8521 15.5332 29.849C15.7852 31.7956 16.2941 33.6928 16.7882 35.5258C17.4848 38.1097 18.1419 40.5504 18.1024 43.0503V43.1145L18.1073 43.1837C18.1666 43.8655 18.2062 44.5374 18.2259 45.2094C18.221 45.2637 18.2012 45.3131 18.2062 45.3675C18.2062 45.4021 18.2259 45.4317 18.2309 45.4663C18.4532 53.8752 15.721 61.6418 12.396 70.1096C8.7597 79.398 4.63924 88.7552 0.143278 97.9249C0.0444655 98.1324 0.0247037 98.3498 0.0345842 98.5623C0.0247037 98.6265 0 98.6809 0 98.7451C0.00988058 99.4368 0.573104 100 1.2648 100H1.27468L32.1635 99.6887L39.6436 71.3004L44.4607 52.5954C44.9202 50.8316 45.6811 49.1962 46.7334 47.7239C50.5032 42.4078 53.1069 36.2221 54.258 29.8333C54.6137 27.8275 54.8854 25.4659 54.2283 23.208C53.586 20.9353 51.9356 19.1029 50.0236 18.4409ZM30.2169 97.1744L3.17689 97.4461C7.40611 88.7211 11.3042 79.8427 14.7527 71.0233C15.5086 69.1064 16.2398 67.1894 16.9215 65.2724C24.5548 65.9443 31.1998 66.6657 37.1684 70.8059L30.2169 97.1744ZM37.8353 68.2169C31.7238 64.2694 25.1874 63.469 17.7668 62.8119C19.5207 57.476 20.7608 52.0908 20.7806 46.4784C24.7825 46.2956 28.1718 46.5228 31.3535 47.1898C35.4591 48.0495 39.1349 49.7293 42.0055 52.0415L37.8353 68.2169ZM51.7771 29.389C50.6902 35.4066 48.2396 41.2415 44.6824 46.2563C43.9512 47.279 43.3534 48.3758 42.8643 49.5269C39.8011 47.2493 36.0265 45.5892 31.8665 44.7147C28.4772 44.0033 24.8953 43.7612 20.6909 43.9539C20.6711 43.6426 20.6612 43.3314 20.6316 43.0201C20.6612 40.1941 19.93 37.4866 19.2284 34.8681C18.7344 33.0352 18.27 31.301 18.0427 29.5224C17.5733 25.8861 18.1366 22.1609 18.7492 18.9939C19.7768 13.6432 21.264 8.29264 23.1562 3.12456L23.2946 2.77872C23.3934 2.55145 23.6207 2.52181 23.6898 2.52181C23.7985 2.52181 23.9665 2.54157 24.0554 2.69967C24.6088 3.67791 24.9793 4.7155 25.1572 5.78261C25.1671 5.85177 25.2066 5.91106 25.2313 5.97528C24.589 6.7312 24.0604 7.54148 23.6158 8.31225C22.0446 11.0543 21.5802 14.157 21.1356 17.1559C21.0418 17.7834 20.9479 18.4109 20.8491 19.0285C20.7355 19.7202 21.1999 20.3674 21.8866 20.481C22.5734 20.5995 23.2255 20.1302 23.3391 19.4434C23.4429 18.811 23.5417 18.1688 23.6355 17.5265C24.0654 14.6313 24.4754 11.8943 25.8044 9.5721C26.4368 8.47528 27.2322 7.25499 28.3241 6.52369C29.1443 5.97528 30.3893 5.65909 31.3379 6.17784C31.8962 6.48416 32.2667 7.27466 32.1284 7.86255C31.995 8.42577 32.1284 9.00382 32.494 9.45341C32.8596 9.89806 33.3734 10.1649 33.9762 10.1253C37.1481 9.99688 40.31 12.2449 41.2192 15.2636C41.5008 16.143 42.3703 16.6618 43.3535 16.4987C44.2231 16.306 45.2062 16.5284 46.056 17.0916C46.8959 17.6499 47.4641 18.465 47.6173 19.305C47.7309 19.972 48.2151 20.5204 48.9365 20.7476C50.2013 21.0786 51.3525 22.3434 51.797 23.8997C52.3207 25.6733 52.0835 27.6697 51.7771 29.389Z" fill="white"/>
<path d="M37.8353 68.2168C31.7238 64.2693 25.1874 63.4689 17.7668 62.8118C19.5207 57.4759 20.7608 52.0907 20.7806 46.4783C24.7825 46.2955 28.1718 46.5227 31.3535 47.1897C35.4591 48.0494 39.1349 49.7292 42.0055 52.0414L37.8353 68.2168Z" fill="white"/>
</g>
<defs>
<clipPath id="clip0_55_43">
<rect width="55" height="100" fill="white"/>
</clipPath>
</defs>
</svg>
