<svg width="50" height="50" viewBox="0 0 50 50" fill="none" xmlns="http://www.w3.org/2000/svg">
<g clip-path="url(#clip0_38_69)">
<path d="M50 5.95238V44.0476C50 47.3298 47.3298 50 44.0476 50H5.95238C2.67024 50 0 47.3298 0 44.0476V5.95238C0 2.67024 2.67024 0 5.95238 0H44.0476C47.3298 0 50 2.67024 50 5.95238ZM35.1714 37.9917C38.3988 34.7679 38.3083 30.7381 37.25 28.2655C36.6071 26.7714 35.4548 25.4917 33.919 24.5655L33.6536 24.4012C33.2607 24.1536 32.9286 23.9548 32.4083 23.756C32.3988 23.425 32.3786 23.094 32.3393 22.7952C31.6369 17.3655 28.1119 16.206 25.2702 16.1881C22.706 16.1881 20.5726 17.2833 19.2655 19.2738L21.256 20.581C22.1321 19.2464 23.4833 18.5702 25.2631 18.5702C28.081 18.5881 29.5786 20.0262 29.9774 23.0952C28.619 22.8202 27.0893 22.7214 25.4452 22.8179C20.7738 23.0869 18.825 25.9024 18.9667 28.575C19.1262 31.5345 21.6786 33.6012 25.1762 33.6012C25.331 33.6012 25.4845 33.5976 25.6333 33.5881C28.3679 33.4381 31.7107 32.0524 32.3119 26.3702C32.3369 26.3857 32.3607 26.4012 32.3857 26.4167L32.6869 26.6036C33.7964 27.2726 34.6167 28.1714 35.0607 29.2048C35.8262 30.9917 35.8726 33.9238 33.4869 36.3071C31.425 38.3667 28.9488 39.2583 25.2298 39.2857C21.0988 39.2548 17.969 37.9226 15.9298 35.3274C14.0298 32.9131 13.0488 29.431 13.0119 24.9976C13.0488 20.5595 14.0298 17.0857 15.9298 14.6726C17.9702 12.0762 21.1071 10.7452 25.2321 10.7143C29.3893 10.7452 32.5714 12.0821 34.6893 14.6881C35.7179 15.9536 36.5048 17.556 37.0286 19.4476L39.3238 18.8143C38.7119 16.6024 37.775 14.7083 36.5369 13.1857C33.9488 10.0024 30.1524 8.37024 25.2321 8.33333C20.3274 8.37024 16.5679 10.0071 14.0571 13.2012C11.825 16.0381 10.6714 20.0012 10.6298 24.9988C10.6714 29.9905 11.825 33.9619 14.0571 36.8C16.5679 39.9929 20.3214 41.631 25.2298 41.6667C29.5917 41.6345 32.6583 40.5012 35.1714 37.9917ZM29.7536 25.4821C29.8369 25.5012 29.9179 25.519 29.994 25.5369C29.9881 25.6298 29.9821 25.7107 29.9762 25.7726C29.6024 30.4488 27.244 31.1167 25.4988 31.2119C25.3905 31.2179 25.2833 31.2214 25.1762 31.2214C22.9726 31.2214 21.4333 30.1071 21.3452 28.4488C21.2679 26.9988 22.3405 25.3821 25.5845 25.1964C25.9381 25.175 26.2857 25.1643 26.6262 25.1643C27.7679 25.1631 28.8202 25.2702 29.7536 25.4821Z" fill="white"/>
</g>
<defs>
<clipPath id="clip0_38_69">
<rect width="50" height="50" fill="white"/>
</clipPath>
</defs>
</svg>
