<svg width="30" height="30" viewBox="0 0 30 30" fill="none" xmlns="http://www.w3.org/2000/svg">
<path d="M12.6 1.7998C6.97268 1.7998 2.40002 6.37246 2.40002 11.9998C2.40002 17.6271 6.97268 22.1998 12.6 22.1998C14.8266 22.1998 16.8844 21.4826 18.5625 20.2686L26.4563 28.1436L28.1438 26.4561L20.3438 18.6373C21.8766 16.8514 22.8 14.5334 22.8 11.9998C22.8 6.37246 18.2274 1.7998 12.6 1.7998ZM12.6 2.9998C17.5781 2.9998 21.6 7.02168 21.6 11.9998C21.6 16.9779 17.5781 20.9998 12.6 20.9998C7.6219 20.9998 3.60002 16.9779 3.60002 11.9998C3.60002 7.02168 7.6219 2.9998 12.6 2.9998Z" fill="white"/>
</svg>
