<svg width="100" height="63" viewBox="0 0 100 63" fill="none" xmlns="http://www.w3.org/2000/svg">
<g clip-path="url(#clip0_55_30)">
<path d="M98.7776 0H1.22242C0.547441 0 0 0.547441 0 1.22242V61.3108C0 61.9857 0.547441 62.5332 1.22242 62.5332H98.7776C99.4526 62.5332 100 61.9857 100 61.3108V1.22242C100 0.547237 99.4526 0 98.7776 0ZM97.5552 60.0883H2.44484V2.44484H97.5552V60.0883Z" fill="white"/>
<path d="M9.75837 38.5706H36.606C37.281 38.5706 37.8284 38.0231 37.8284 37.3481V10.4968C37.8284 9.82186 37.281 9.27441 36.606 9.27441H9.75837C9.08339 9.27441 8.53595 9.82186 8.53595 10.4968V37.3481C8.53595 38.0233 9.08339 38.5706 9.75837 38.5706ZM10.9808 11.7193H35.3836V36.1257H10.9808V11.7193Z" fill="white"/>
<path d="M46.757 11.7193H89.9403C90.6153 11.7193 91.1627 11.1718 91.1627 10.4968C91.1627 9.82186 90.6153 9.27441 89.9403 9.27441H46.757C46.082 9.27441 45.5346 9.82186 45.5346 10.4968C45.5346 11.1718 46.082 11.7193 46.757 11.7193Z" fill="white"/>
<path d="M46.757 25.145H89.9403C90.6153 25.145 91.1627 24.5976 91.1627 23.9226C91.1627 23.2476 90.6153 22.7002 89.9403 22.7002H46.757C46.082 22.7002 45.5346 23.2476 45.5346 23.9226C45.5346 24.5976 46.082 25.145 46.757 25.145Z" fill="white"/>
<path d="M46.757 38.5708H89.9403C90.6153 38.5708 91.1627 38.0234 91.1627 37.3484C91.1627 36.6734 90.6153 36.126 89.9403 36.126H46.757C46.082 36.126 45.5346 36.6734 45.5346 37.3484C45.5346 38.0234 46.082 38.5708 46.757 38.5708Z" fill="white"/>
<path d="M9.75837 52.4536H89.9403C90.6153 52.4536 91.1627 51.9062 91.1627 51.2312C91.1627 50.5562 90.6153 50.0088 89.9403 50.0088H9.75837C9.08339 50.0088 8.53595 50.5562 8.53595 51.2312C8.53595 51.9062 9.08339 52.4536 9.75837 52.4536Z" fill="white"/>
</g>
<defs>
<clipPath id="clip0_55_30">
<rect width="100" height="63" fill="white"/>
</clipPath>
</defs>
</svg>
