<svg width="65" height="100" viewBox="0 0 65 100" fill="none" xmlns="http://www.w3.org/2000/svg">
<g clip-path="url(#clip0_55_37)">
<path d="M43.4464 72.3216L42.5714 71.4287H0V73.2144C0.00423945 74.6339 0.570012 75.9941 1.57375 76.9978C2.5775 78.0016 3.93764 78.5673 5.35714 78.5716H41.3929C41.521 76.3449 42.2289 74.1903 43.4464 72.3216ZM26.7857 76.7859H23.2143C22.7407 76.7859 22.2865 76.5977 21.9516 76.2628C21.6167 75.9279 21.4286 75.4737 21.4286 75.0001C21.4286 74.5265 21.6167 74.0723 21.9516 73.7374C22.2865 73.4026 22.7407 73.2144 23.2143 73.2144H26.7857C27.2593 73.2144 27.7135 73.4026 28.0484 73.7374C28.3833 74.0723 28.5714 74.5265 28.5714 75.0001C28.5714 75.4737 28.3833 75.9279 28.0484 76.2628C27.7135 76.5977 27.2593 76.7859 26.7857 76.7859Z" fill="white"/>
<path d="M64.2856 89.6071V65.1429C64.288 63.501 63.9658 61.8748 63.3375 60.3578C62.7093 58.8409 61.7874 57.463 60.6249 56.3036L53.5713 49.25V62.2143L57.9106 66.5357C58.0771 66.7022 58.2092 66.8999 58.2993 67.1174C58.3894 67.335 58.4358 67.5681 58.4358 67.8036C58.4358 68.039 58.3894 68.2722 58.2993 68.4897C58.2092 68.7073 58.0771 68.9049 57.9106 69.0714C57.7441 69.2379 57.5465 69.37 57.3289 69.4601C57.1114 69.5502 56.8782 69.5966 56.6428 69.5966C56.4073 69.5966 56.1741 69.5502 55.9566 69.4601C55.7391 69.37 55.5414 69.2379 55.3749 69.0714L42.7499 56.4464C42.0632 55.8013 41.1564 55.4422 40.2142 55.4422C39.272 55.4422 38.3652 55.8013 37.6785 56.4464C37.0156 57.1251 36.646 58.0371 36.6493 58.9858C36.6527 59.9345 37.0287 60.8439 37.6963 61.5179L47.0713 70.875C47.39 71.1938 47.5763 71.6213 47.5928 72.0718C47.6094 72.5222 47.455 72.9622 47.1606 73.3036C45.7371 74.98 44.9408 77.0993 44.9083 79.2983C44.8757 81.4973 45.6088 83.6393 46.982 85.3571L47.8213 86.375C48.1197 86.7444 48.2591 87.2172 48.2089 87.6894C48.1586 88.1616 47.9229 88.5945 47.5535 88.8929C47.1841 89.1912 46.7113 89.3306 46.2391 89.2804C45.7669 89.2302 45.334 88.9944 45.0356 88.625L44.1963 87.5893C42.9322 85.9977 42.0577 84.1326 41.6428 82.1429H33.7678C32.9981 86.2241 33.864 90.4443 36.1785 93.8929L37.1963 95.4464C37.3949 95.7354 37.5008 96.078 37.4999 96.4286V100H60.7142V99.3214C60.708 98.2524 61.0255 97.2066 61.6249 96.3214L62.7856 94.5714C63.7642 93.1008 64.2861 91.3736 64.2856 89.6071Z" fill="white"/>
<path d="M0 7.14286H50V5.35714C49.9958 3.93764 49.43 2.5775 48.4262 1.57375C47.4225 0.570013 46.0624 0.00423945 44.6429 0H5.35714C3.93764 0.00423945 2.5775 0.570013 1.57375 1.57375C0.570012 2.5775 0.00423945 3.93764 0 5.35714V7.14286ZM23.2143 1.78571H26.7857C27.2593 1.78571 27.7135 1.97385 28.0484 2.30874C28.3833 2.64362 28.5714 3.09783 28.5714 3.57143C28.5714 4.04503 28.3833 4.49923 28.0484 4.83412C27.7135 5.16901 27.2593 5.35714 26.7857 5.35714H23.2143C22.7407 5.35714 22.2865 5.16901 21.9516 4.83412C21.6167 4.49923 21.4286 4.04503 21.4286 3.57143C21.4286 3.09783 21.6167 2.64362 21.9516 2.30874C22.2865 1.97385 22.7407 1.78571 23.2143 1.78571Z" fill="white"/>
<path d="M0 67.8572H39L35.1607 64.0358C33.8307 62.69 33.0849 60.8743 33.0849 58.9822C33.0849 57.0902 33.8307 55.2744 35.1607 53.9286C36.5185 52.6239 38.3276 51.8937 40.2107 51.8904C42.0938 51.8871 43.9054 52.6109 45.2679 53.9108L50 58.6429V10.7144H0V67.8572ZM25 17.8572C28.1786 17.8572 31.2859 18.7998 33.9288 20.5657C36.5717 22.3317 38.6317 24.8417 39.8481 27.7784C41.0645 30.715 41.3827 33.9465 40.7626 37.064C40.1425 40.1816 38.6118 43.0452 36.3642 45.2929C34.1166 47.5405 31.2529 49.0711 28.1354 49.6913C25.0178 50.3114 21.7864 49.9931 18.8497 48.7767C15.9131 47.5603 13.403 45.5004 11.6371 42.8574C9.87114 40.2145 8.92857 37.1073 8.92857 33.9286C8.9333 29.6677 10.628 25.5826 13.641 22.5696C16.654 19.5567 20.739 17.8619 25 17.8572Z" fill="white"/>
<path d="M25 46.4287C27.4723 46.4287 29.889 45.6956 31.9446 44.3221C34.0002 42.9486 35.6024 40.9963 36.5485 38.7123C37.4946 36.4282 37.7421 33.9149 37.2598 31.4901C36.7775 29.0653 35.587 26.838 33.8388 25.0899C32.0907 23.3417 29.8634 22.1512 27.4386 21.6689C25.0139 21.1866 22.5005 21.4341 20.2165 22.3802C17.9324 23.3263 15.9801 24.9285 14.6066 26.9841C13.2331 29.0397 12.5 31.4565 12.5 33.9287C12.5038 37.2428 13.822 40.42 16.1653 42.7634C18.5087 45.1068 21.686 46.4249 25 46.4287ZM14.8089 32.6662C15.1438 32.3314 15.5979 32.1434 16.0714 32.1434C16.5449 32.1434 16.9991 32.3314 17.3339 32.6662L21.4286 36.7609L30.8804 27.3091C31.2171 26.9838 31.6682 26.8038 32.1364 26.8079C32.6046 26.8119 33.0525 26.9997 33.3836 27.3308C33.7147 27.6619 33.9025 28.1098 33.9066 28.578C33.9106 29.0462 33.7306 29.4973 33.4054 29.8341L22.6911 40.5484C22.3562 40.8831 21.9021 41.0712 21.4286 41.0712C20.9551 41.0712 20.5009 40.8831 20.1661 40.5484L14.8089 35.1912C14.4742 34.8563 14.2861 34.4022 14.2861 33.9287C14.2861 33.4552 14.4742 33.0011 14.8089 32.6662Z" fill="white"/>
</g>
<defs>
<clipPath id="clip0_55_37">
<rect width="65" height="100" fill="white"/>
</clipPath>
</defs>
</svg>
