<svg width="34" height="30" viewBox="0 0 34 30" fill="none" xmlns="http://www.w3.org/2000/svg">
<g clip-path="url(#clip0_30_2)">
<path opacity="0.35" d="M30 18.3333H3.33333C1.45833 18.3333 0 16.875 0 15C0 13.125 1.45833 11.6667 3.33333 11.6667H30C31.875 11.6667 33.3333 13.125 33.3333 15C33.3333 16.875 31.875 18.3333 30 18.3333Z" fill="white"/>
<path d="M30 6.66667H3.33333C1.45833 6.66667 0 5.20833 0 3.33333C0 1.45833 1.45833 0 3.33333 0H30C31.875 0 33.3333 1.45833 33.3333 3.33333C33.3333 5.20833 31.875 6.66667 30 6.66667Z" fill="white"/>
<path d="M30 30H3.33333C1.45833 30 0 28.5417 0 26.6667C0 24.7917 1.45833 23.3333 3.33333 23.3333H30C31.875 23.3333 33.3333 24.7917 33.3333 26.6667C33.3333 28.5417 31.875 30 30 30Z" fill="white"/>
</g>
<defs>
<clipPath id="clip0_30_2">
<rect width="33.3333" height="30" fill="white"/>
</clipPath>
</defs>
</svg>
