<svg width="62" height="99" viewBox="0 0 62 99" fill="none" xmlns="http://www.w3.org/2000/svg">
<g clip-path="url(#clip0_55_27)">
<path d="M55.5762 0H6.42384C2.87172 0.00868365 0 2.91356 0 6.49584V92.5042C0 96.0864 2.87183 98.9912 6.42384 99H55.5762C59.1283 98.9913 62 96.0864 62 92.5042V6.49584C62 2.91356 59.1282 0.00878146 55.5762 0ZM45.9834 3.47368L44.5368 7.03417C44.188 7.88089 43.3614 8.43232 42.4529 8.42365H19.5477C18.6393 8.43233 17.8126 7.88089 17.4639 7.03417L16.0172 3.56049L45.9834 3.47368ZM6.37192 3.47368H12.2447L14.2252 8.35417C15.1294 10.4775 17.2046 11.8452 19.4952 11.8279H42.4004C44.6909 11.8452 46.7661 10.4775 47.6703 8.35417L49.7026 3.47368H55.5753C57.2243 3.48236 58.5547 4.83281 58.5547 6.49584V81.4584H3.44377V6.49584C3.44377 4.83281 4.77415 3.48246 6.42318 3.47368H6.37192ZM55.5243 95.5257H6.42373C4.7747 95.517 3.44432 94.1665 3.44432 92.5035V84.9309H58.5552V92.5035C58.5552 94.1665 57.2249 95.5169 55.5758 95.5257H55.5243Z" fill="white"/>
<path d="M36.1675 88H25.8325C24.82 88 24 88.895 24 90C24 91.105 24.82 92 25.8325 92H36.1675C37.18 92 38 91.105 38 90C38 88.895 37.18 88 36.1675 88Z" fill="white"/>
</g>
<defs>
<clipPath id="clip0_55_27">
<rect width="62" height="99" fill="white"/>
</clipPath>
</defs>
</svg>
